<svg xmlns="http://www.w3.org/2000/svg" viewBox="0 0 512 512" style="enable-background:new 0 0 512 512" xml:space="preserve"><path style="fill:#61aaf1" d="M370.638 512a47.703 47.703 0 0 1-22.424-5.578c-36.03-19.085-59.415-51.183-76.491-74.62-5.012-6.882-11.501-15.787-15.725-20.124-4.225 4.338-10.713 13.243-15.726 20.124-17.075 23.438-40.458 55.536-76.49 74.62-12.083 6.4-26.081 7.325-39.417 2.604-14.475-5.124-26.247-16.198-32.299-30.384-10.269-24.071-3.562-48.432 17.506-63.576 4.888-3.514 10.113-7.456 15.036-11.205-18.312 4.811-39.781 8.542-55.168 8.542-29.638 0-53.749-24.111-53.749-53.749s24.111-53.749 53.749-53.749c27.759 0 60.759-6.518 70.13-24.809 5.648-11.025-.088-22.953-5.895-31.016-21.101-29.304-32.255-61.982-32.255-94.5C101.419 69.344 170.763 0 255.999 0c85.235 0 154.579 69.344 154.579 154.579 0 32.518-11.154 65.196-32.255 94.5-5.806 8.064-11.543 19.99-5.895 31.016 9.37 18.293 42.371 24.809 70.13 24.809 29.638 0 53.749 24.111 53.749 53.749s-24.112 53.749-53.749 53.749c-15.388 0-36.857-3.731-55.168-8.542 4.92 3.749 10.146 7.691 15.035 11.206 21.069 15.144 27.775 39.505 17.506 63.576-6.052 14.186-17.824 25.26-32.299 30.384-5.611 1.988-11.34 2.974-16.994 2.974"/><path style="fill:#487eb5" d="M255.999 0v411.678c4.224 4.338 10.713 13.243 15.725 20.124 17.075 23.438 40.459 55.536 76.491 74.62 7 3.707 14.64 5.578 22.424 5.578 5.654 0 11.383-.986 16.994-2.973 14.474-5.124 26.247-16.198 32.299-30.384 3.189-7.475 4.741-14.978 4.734-22.224-.016-16.088-7.714-30.91-22.24-41.352-4.889-3.515-10.114-7.457-15.035-11.206 18.311 4.811 39.78 8.542 55.168 8.542 29.638 0 53.749-24.111 53.749-53.749s-24.112-53.749-53.749-53.749c-27.76 0-60.76-6.518-70.13-24.809-1.632-3.187-2.313-6.45-2.318-9.672-.008-7.926 4.084-15.611 8.212-21.344 21.101-29.304 32.255-61.982 32.255-94.5C410.579 69.344 341.234 0 255.999 0"/><path style="fill:#333" d="M183.268 172.404c0-11.512 9.228-20.835 20.568-20.835 11.355 0 20.582 9.323 20.582 20.835 0 11.51-9.227 20.842-20.582 20.842-11.34-.001-20.568-9.332-20.568-20.842zM328.729 172.404c0-11.597-9.288-20.998-20.724-20.998-11.45 0-20.738 9.401-20.738 20.998 0 11.597 9.288 20.998 20.738 20.998 11.437-.001 20.724-9.401 20.724-20.998z"/></svg>